<mxfile host="app.diagrams.net" modified="2021-01-09T04:00:00.466Z" agent="5.0 (Windows NT 10.0; WOW64) AppleWebKit/537.36 (KHTML, like Gecko) Chrome/78.0.3904.108 Safari/537.36" etag="sTnKFyYJN3jWVtiOe7FW" version="14.1.8" type="github">
  <diagram id="ar2vK6DzCe43jqtC_QXZ" name="第 1 页">
    <mxGraphModel dx="942" dy="629" grid="1" gridSize="10" guides="1" tooltips="1" connect="1" arrows="1" fold="1" page="1" pageScale="1" pageWidth="827" pageHeight="1169" math="0" shadow="0">
      <root>
        <mxCell id="0" />
        <mxCell id="1" parent="0" />
        <mxCell id="_QPw_0OSD-xxOuF4TyRC-4" value="" style="edgeStyle=orthogonalEdgeStyle;rounded=0;orthogonalLoop=1;jettySize=auto;html=1;" edge="1" parent="1" source="_QPw_0OSD-xxOuF4TyRC-1" target="_QPw_0OSD-xxOuF4TyRC-3">
          <mxGeometry relative="1" as="geometry" />
        </mxCell>
        <mxCell id="_QPw_0OSD-xxOuF4TyRC-1" value="" style="rounded=1;whiteSpace=wrap;html=1;" vertex="1" parent="1">
          <mxGeometry x="80" y="180" width="120" height="60" as="geometry" />
        </mxCell>
        <mxCell id="_QPw_0OSD-xxOuF4TyRC-3" value="Text" style="text;html=1;align=center;verticalAlign=middle;resizable=0;points=[];autosize=1;" vertex="1" parent="1">
          <mxGeometry x="280" y="200" width="40" height="20" as="geometry" />
        </mxCell>
      </root>
    </mxGraphModel>
  </diagram>
</mxfile>
